<svg width="20" height="20" xmlns="http://www.w3.org/2000/svg"><path d="M7.5 12.5V15H5v-2.5h2.5zm3.75 0V15h-2.5v-2.5h2.5zM7.5 8.75v2.5H5v-2.5h2.5zm3.75 0v2.5h-2.5v-2.5h2.5zm3.75 0v2.5h-2.5v-2.5H15zm3.75-6.25h-2.5V1.25C16.25.56 15.69 0 15 0h-1.25c-.69 0-1.25.56-1.25 1.25V2.5h-5V1.25C7.5.56 6.94 0 6.25 0H5c-.69 0-1.25.56-1.25 1.25V2.5h-2.5C.56 2.5 0 3.06 0 3.75v15C0 19.44.56 20 1.25 20h17.5c.69 0 1.25-.56 1.25-1.25v-15c0-.69-.56-1.25-1.25-1.25zm-1.25 15h-15V6.25h15V17.5z" fill="#737373" fill-rule="evenodd"/></svg>