<svg width="12" height="12" xmlns="http://www.w3.org/2000/svg" xmlns:xlink="http://www.w3.org/1999/xlink"><defs><path d="M6 9.064A.658.658 0 116 7.75a.658.658 0 010 1.315zM6 12A6 6 0 116 0a6 6 0 010 12zm0-1.412a4.588 4.588 0 100-9.176 4.588 4.588 0 000 9.176zm-.706-6.994a.706.706 0 111.412 0V6.48a.706.706 0 11-1.412 0V3.594z" id="status-information-12px_svg__a"/></defs><g transform="rotate(-180 6 6)" fill="none" fill-rule="evenodd"><mask id="status-information-12px_svg__b" fill="#fff"><use xlink:href="#status-information-12px_svg__a"/></mask><g mask="url(#status-information-12px_svg__b)" fill="#555"><path d="M-16.941-16.235h45v45h-45z"/></g></g></svg>