<svg width="16" height="16" xmlns="http://www.w3.org/2000/svg" xmlns:xlink="http://www.w3.org/1999/xlink"><defs><path d="M8 12.086a.877.877 0 110-1.754.877.877 0 010 1.754zM8 16A8 8 0 118 0a8 8 0 010 16zm0-1.882A6.118 6.118 0 108 1.882a6.118 6.118 0 000 12.236zM7.059 4.79a.941.941 0 011.882 0v3.85a.941.941 0 01-1.882 0v-3.85z" id="status-information-16px_svg__a"/></defs><g transform="rotate(-180 8 8)" fill="none" fill-rule="evenodd"><mask id="status-information-16px_svg__b" fill="#fff"><use xlink:href="#status-information-16px_svg__a"/></mask><g mask="url(#status-information-16px_svg__b)" fill="#555"><path d="M-22.588-21.647h60v60h-60z"/></g></g></svg>