<svg width="24" height="24" xmlns="http://www.w3.org/2000/svg" xmlns:xlink="http://www.w3.org/1999/xlink"><defs><path d="M11.959 8a1 1 0 110-2 1 1 0 010 2zM12 24C5.373 24 0 18.627 0 12S5.373 0 12 0s12 5.373 12 12-5.373 12-12 12zm0-2c5.523 0 10-4.477 10-10S17.523 2 12 2 2 6.477 2 12s4.477 10 10 10zm-1.041-11a1 1 0 012 0v6a1 1 0 01-2 0v-6z" id="status-information-24px_svg__a"/></defs><g fill="none" fill-rule="evenodd"><mask id="status-information-24px_svg__b" fill="#fff"><use xlink:href="#status-information-24px_svg__a"/></mask><use fill="#000" fill-rule="nonzero" xlink:href="#status-information-24px_svg__a"/><g mask="url(#status-information-24px_svg__b)" fill="#555"><path d="M-20-20h64v64h-64z"/></g></g></svg>