<svg width="20" height="20" xmlns="http://www.w3.org/2000/svg" xmlns:xlink="http://www.w3.org/1999/xlink"><defs><path d="M10 15.107a1.096 1.096 0 110-2.193 1.096 1.096 0 010 2.193zM10 20C4.477 20 0 15.523 0 10S4.477 0 10 0s10 4.477 10 10-4.477 10-10 10zm0-2.353a7.647 7.647 0 100-15.294 7.647 7.647 0 000 15.294zM8.824 5.99a1.176 1.176 0 012.352 0v4.813a1.176 1.176 0 11-2.352 0V5.99z" id="status-warning-20px_svg__a"/></defs><g fill="none" fill-rule="evenodd"><mask id="status-warning-20px_svg__b" fill="#fff"><use xlink:href="#status-warning-20px_svg__a"/></mask><g mask="url(#status-warning-20px_svg__b)" fill="#555"><path d="M-22-22h64v64h-64z"/></g></g></svg>